<svg width="200" height="200" viewBox="0 0 200 200" fill="none" xmlns="http://www.w3.org/2000/svg">
<defs>
    <linearGradient id="paint0_linear_a_v3" x1="100" y1="170" x2="100" y2="30" gradientUnits="userSpaceOnUse">
        <stop stop-color="#4285F4"/> <stop offset="1" stop-color="#EA4335"/> </linearGradient>
    <linearGradient id="paint1_linear_swoosh_v3" x1="20" y1="120" x2="180" y2="80" gradientUnits="userSpaceOnUse">
        <stop stop-color="#FBBC05"/> <stop offset="1" stop-color="#34A853"/> </linearGradient>
</defs>

<path d="M100 30 L 40 170 H 70 L 85 135 H 115 L 130 170 H 160 L 100 30 Z M 92 115 L 100 95 L 108 115 H 92 Z" fill="url(#paint0_linear_a_v3)"/>
<path d="M20 140 C 60 140, 80 100, 120 100 C 140 100, 160 110, 180 120 L 170 90 L 140 85 C 165 95, 130 80, 110 80 C 70 80, 50 120, 20 120 L 20 140 Z" fill="url(#paint1_linear_swoosh_v3)"/>
<path d="M175 95 L 195 105 L 175 115" stroke="url(#paint1_linear_swoosh_v3)" stroke-width="4" stroke-linecap="round" stroke-linejoin="round"/>
</svg>